<?xml version="1.0" encoding="utf-8"?>
<!-- Generator: Adobe Illustrator 18.0.0, SVG Export Plug-In . SVG Version: 6.00 Build 0)  -->
<!DOCTYPE svg PUBLIC "-//W3C//DTD SVG 1.1//EN" "http://www.w3.org/Graphics/SVG/1.1/DTD/svg11.dtd">
<svg version="1.1" id="Capa_1" xmlns="http://www.w3.org/2000/svg" xmlns:xlink="http://www.w3.org/1999/xlink" x="0px" y="0px"
	 viewBox="0 0 1024 189.5" enable-background="new 0 0 1024 189.5" xml:space="preserve">
<g>
	<g>
		<path d="M298.3,74c-9.1-18.4-46.5-23.7-80.1-25.9c-0.1,1.5-0.1,3.3-0.1,5.3c25.8,11.8,27,24.8,27,24.8c0,8.5-1.9,29.7-56.4,46.3
			C132.3,141.6,90.5,94.3,93,68.3C94.6,51.8,116.8,48,116.8,48l1.3-9.7C102.7,37,86,37.2,66.4,41.5C20.2,51.7,21.5,83.8,23.3,94.3
			c2.3,13.7,34,78.1,132.1,83.4C226.9,181.6,318,113.9,298.3,74z"/>
		<path fill="#E3C83A" d="M213.7,32.2c-4.4-6.3-15.2-15.7-41.8-17.9c-41.2-3.5-48,5.4-48,12.4c0,9.9,44.2,68.1,44.2,68.1l45-52.6
			C215.5,39.4,215.8,35.2,213.7,32.2z M169.1,41.3c-13.4-1.3-23.7-7-23.2-12.7c0.6-5.7,11.8-9.3,25.2-8c13.4,1.3,23.7,7,23.2,12.7
			C193.7,39,182.4,42.6,169.1,41.3z"/>
		<g>
			<path fill="#E3C83A" d="M161.2,153.7c-8.9,0-18.2-0.8-27.8-2.7c-63.2-12.4-88.6-48.8-93.7-68.3C33.9,60.5,54.9,50,64.3,46.5
				c17.7-6.6,52.2-6.1,53.6-6.1c-0.3,2-0.3,2-0.5,3.7c0,0-1.7-0.2-1.7-0.2c-0.3,0-33-0.5-50.1,5.8C55,53.7,38.1,63,43,81.8
				c4.9,18.8,29.5,53.7,91,65.8c62.1,12.2,112.5-22,113.1-22.3c0.5-0.3,40.2-24.9,35.5-50.4c-3-16.2-46.4-20.4-62.8-20.7
				c-0.9-0.4-0.9-0.4-1.6-0.7c0-1,0-1.4,0-3c2.5,0.1,63.7,1.5,67.8,23.8c5.1,27.9-35.3,52.9-37,54
				C248.6,128.4,211.3,153.7,161.2,153.7z"/>
		</g>
		<g>
			<path fill="#FFFFFF" d="M156.6,143.4c-46.9,0-81.6-24.9-97.1-46.3c-7.7-10.6-11-20.7-8.9-27c4-12.1,16.4-20.1,34.1-22.2
				c12.8-1.5,32.2-1.6,32.3-1.6c-0.1,0.5,0,0.8-0.2,1.7c-3.3,0.6-4.7,1.4-6.5,1.8c-0.2,0-12.5,0.1-25.2,1.5
				c-7.7,0.9-26.1,4.6-31.2,19.8c-1.7,5.2,1.5,14.3,8.4,23.9c15,20.7,48.7,44.9,94.2,44.9c0.2,0,0.4,0,0.6,0
				c65.7-0.3,99.4-34.5,106.8-47.6c4.6-8.1,7-14,4.7-18.4c-3-5.7-14.2-9.2-35-11.3c-2.2-1.8-2.4-1.8-4.6-3.3
				c22.9,1.5,39.1,6,42.7,12.9c3.3,6.4-0.6,14.2-4.8,21.7c-9.6,16.9-44.9,49.1-109.9,49.4C157,143.4,156.8,143.4,156.6,143.4z"/>
		</g>
	</g>
	<g>
		<g>
			<path d="M375.8,36v11.3h-11.1v-36h35.1v14.8c0,1.5-0.2,2.9-0.7,4.1c-0.5,1.2-1.1,2.2-1.9,3.1c-0.8,0.8-1.8,1.5-2.9,2
				c-1.1,0.5-2.3,0.7-3.6,0.8c0.5,1.3,1.7,1.9,3.4,1.9h5.7v9.4h-5.7c-9.1,0-14-3.8-14.7-11.3H375.8z M388.8,20.8H376v5.7h9.2
				c2.4,0,3.7-1.3,3.7-3.9V20.8z"/>
			<path d="M419.8,37.9h9.4V11.3h11.1v36h-25.7c-3.1,0-5.4-0.8-7.1-2.5c-1.6-1.6-2.4-4.1-2.4-7.2V11.3h11.1V34
				C416.1,36.6,417.4,37.9,419.8,37.9z"/>
			<path d="M479.7,20.8h-14.8V34c0,2.6,1.2,3.9,3.7,3.9h7.7v9.4h-8.2c-5,0-8.6-1.1-10.8-3.3c-2.3-2.2-3.4-5.5-3.4-10V20.8h-8.4v-9.5
				h34.3V20.8z"/>
			<path d="M520.1,47.3H509V36h-13v11.3h-11V21.5c0-1.5,0.2-3,0.7-4.2c0.5-1.3,1.2-2.3,2.1-3.2c0.9-0.9,1.9-1.6,3.1-2.1
				c1.2-0.5,2.5-0.7,3.9-0.7h25.3V47.3z M499.7,20.8c-2.4,0-3.7,1.3-3.7,3.9v1.8h13v-5.7H499.7z"/>
			<path d="M532.3,33.3c-1.4-0.5-2.6-1.2-3.5-2.1c-0.9-0.9-1.7-1.9-2.2-3c-0.5-1.2-0.9-2.4-1.2-3.7h22c2.4,0,4.5,0.2,6.1,0.7
				c1.6,0.5,3,1.2,4,2.1c1,0.9,1.7,2,2.2,3.2c0.4,1.2,0.7,2.6,0.7,4.1c0,1.9-0.2,3.6-0.7,5.2c-0.5,1.6-1.3,2.9-2.4,4
				c-1.1,1.1-2.5,2-4.2,2.6c-1.7,0.6-3.8,0.9-6.3,0.9h-21.6v-9.4h20.3c2.5,0,3.8-1.3,3.8-3.9h-11.8C535.5,34,533.7,33.8,532.3,33.3z
				 M526.3,16.8c0.5-1.2,1.2-2.2,2.2-3c1-0.8,2.3-1.4,4-1.8c1.6-0.4,3.7-0.6,6.2-0.6h21.7v9.5h-34.9C525.6,19.3,525.8,18,526.3,16.8
				z"/>
			<path d="M594.1,36v11.3H583V26.5h20.4c2.4,0,3.7-1.3,3.7-3.9v-1.8H583v-9.5h35.1v14.8c0,1.6-0.2,3-0.7,4.2
				c-0.5,1.2-1.2,2.3-2,3.1c-0.9,0.8-1.9,1.5-3.1,1.9c-1.2,0.4-2.5,0.7-3.9,0.7H594.1z"/>
			<path d="M658.5,11.3v26.3c0,3.2-0.8,5.6-2.4,7.2c-1.6,1.7-4,2.5-7.1,2.5h-25.7V21.2c0-1.5,0.2-2.9,0.7-4.2c0.5-1.2,1.2-2.3,2-3.1
				c0.9-0.8,1.9-1.5,3.1-1.9c1.2-0.4,2.5-0.7,3.9-0.7H658.5z M647.5,20.8h-9.2c-2.6,0-3.8,1.3-3.8,3.8v13.3h9.4
				c2.4,0,3.7-1.3,3.7-3.9V20.8z"/>
			<path d="M674.8,36v11.3h-11.1V26.5h20.4c2.4,0,3.7-1.3,3.7-3.9v-1.8h-24.1v-9.5h35.1v14.8c0,1.5-0.2,2.9-0.7,4.1
				c-0.4,1.2-1.1,2.2-1.9,3.1c-0.8,0.8-1.8,1.5-2.9,2c-1.1,0.5-2.3,0.7-3.6,0.8c0.1,0.3,0.2,0.6,0.4,0.8c0.1,0.2,0.3,0.4,0.6,0.6
				c0.2,0.2,0.6,0.3,1,0.4c0.4,0.1,0.9,0.1,1.5,0.1h5.7v9.4h-5.7c-9.1,0-14-3.8-14.7-11.3H674.8z"/>
		</g>
		<g>
			<path d="M373.6,61.7h33.9c3.1,0,5.9,0.7,8.4,2.1c2.5,1.4,4.7,3.5,6.6,6.2c1.9,2.7,3.3,6,4.3,9.9c1,3.9,1.5,8.3,1.5,13.4v28.6
				h-23.6v-18c0-3.8-0.6-6.7-1.9-8.8c-1.3-2.1-3.1-3.2-5.5-3.2h-13.4c-4.3,0.3-6.7,3.4-7.3,9.3v32.7c0,8.2,2.6,12.3,7.9,12.3h43.8
				v30h-55.1c-6.7,0-11.7-2.6-15.2-7.9c-3.5-5.3-5.2-12.9-5.2-23V93.2c0-5,0.5-9.5,1.5-13.4c1-3.9,2.4-7.2,4.3-9.9
				c1.9-2.7,4.1-4.7,6.6-6.2C367.7,62.4,370.6,61.7,373.6,61.7z"/>
			<path d="M515.4,61.7v83.6c0,10-1.7,17.7-5.2,23c-3.5,5.3-8.6,7.9-15.2,7.9h-55.3V93.2c0-4.9,0.5-9.3,1.6-13.3
				c1-3.9,2.5-7.2,4.3-9.9c1.9-2.7,4.1-4.7,6.6-6.2c2.6-1.4,5.4-2.1,8.5-2.1H515.4z M491.6,91.8h-19.8c-5.5,0-8.3,4-8.3,12v42.3
				h20.2c5.3,0,7.9-4.1,7.9-12.3V91.8z"/>
			<path d="M550.5,133.8c0,8.2,2.7,12.3,8,12.3h25.7v30h-25.8c-21.2,0-31.7-14.1-31.7-42.3V61.7h23.8V133.8z"/>
			<path d="M671.3,61.7v83.6c0,10-1.7,17.7-5.2,23c-3.5,5.3-8.6,7.9-15.2,7.9h-55.3V93.2c0-4.9,0.5-9.3,1.6-13.3
				c1-3.9,2.5-7.2,4.3-9.9c1.9-2.7,4.1-4.7,6.6-6.2c2.6-1.4,5.4-2.1,8.5-2.1H671.3z M647.5,91.8h-19.8c-5.5,0-8.3,4-8.3,12v42.3
				h20.2c5.3,0,7.9-4.1,7.9-12.3V91.8z"/>
			<path d="M706.3,92.3v83.8h-23.7V61.7h21.9c2.3,0,4.6,0.5,7,1.6c2.3,1.1,4.6,2.9,6.8,5.5c2.2,2.6,4.3,6,6.2,10.4
				c1.9,4.3,3.7,9.8,5.4,16.3l4.7,26l4.7-26c1.6-6.5,3.3-11.9,5.3-16.3c2-4.3,4.1-7.8,6.3-10.4c2.2-2.6,4.5-4.4,6.8-5.5
				c2.3-1.1,4.6-1.6,7-1.6h21.9v114.5h-23.7V92.3l-16.4,83.8h-23.7L706.3,92.3z"/>
			<path d="M849.8,91.8h-51.9V61.7h75.6v22.3c0,5.4-0.3,9.8-0.8,13.2c-0.5,3.4-1.2,6.3-2.2,8.6c-0.9,2.3-2.1,4.2-3.3,5.7
				c-1.3,1.5-2.7,3.2-4.3,4.9h10.6v28.3c0,5-0.5,9.5-1.6,13.4c-1,3.9-2.5,7.2-4.3,9.9c-1.9,2.7-4.1,4.7-6.6,6.2
				c-2.6,1.4-5.4,2.1-8.4,2.1h-54.7V104h51.9V91.8z M849.8,134.2h-28.1V146h20.2C847,146,849.7,142,849.8,134.2z"/>
			<path d="M908.7,176.1h-23.8V61.7h23.8V176.1z"/>
			<path d="M995.6,91.8h-44c-5.3,0-7.9,4.1-7.9,12.3v5.8h51.9v66.1h-23.8v-36h-28.1v36H920V94.1c0-4.9,0.5-9.4,1.6-13.4
				c1.1-4,2.5-7.4,4.4-10.3c1.9-2.9,4.1-5,6.7-6.5c2.6-1.5,5.4-2.2,8.4-2.2h54.5V91.8z"/>
		</g>
	</g>
	<g>
		<rect x="330.1" y="11.3" width="5" height="166"/>
	</g>
	<g>
		<rect x="316.8" y="11.3" fill="#E3C83A" width="5" height="166"/>
	</g>
</g>
</svg>
