<?xml version="1.0" encoding="utf-8"?>
<!-- Generator: Adobe Illustrator 21.1.0, SVG Export Plug-In . SVG Version: 6.00 Build 0)  -->
<svg version="1.1" id="Capa_1" xmlns="http://www.w3.org/2000/svg" xmlns:xlink="http://www.w3.org/1999/xlink" x="0px" y="0px"
	 viewBox="0 0 230 230" style="enable-background:new 0 0 230 230;" xml:space="preserve">
<style type="text/css">
	.st0{fill:#E3C83A;}
	.st1{fill:#FFFFFF;}
</style>
<g>
	<path d="M219.5,103.4c-6.9-14-35.3-18-60.8-19.7c-0.1,1.1-0.1,2.5-0.1,4c19.6,9,20.5,18.8,20.5,18.8c0,6.4-1.4,22.5-42.8,35.1
		c-42.8,13-74.5-22.9-72.6-42.6C65,86.6,81.8,83.7,81.8,83.7l1-7.4c-11.7-1-24.4-0.8-39.2,2.4c-35.1,7.7-34.1,32.1-32.7,40.1
		c1.7,10.4,25.8,59.3,100.2,63.3C165.4,185.1,234.5,133.7,219.5,103.4z"/>
	<path class="st0" d="M155.4,71.7c-3.3-4.8-11.5-11.9-31.7-13.6c-31.3-2.7-36.4,4.1-36.4,9.4c0,7.5,33.5,51.7,33.5,51.7l34.1-39.9
		C156.7,77.2,156.9,74,155.4,71.7z M121.5,78.6c-10.2-1-18-5.3-17.6-9.6c0.5-4.3,9-7.1,19.1-6.1s18,5.3,17.6,9.6
		C140.2,76.9,131.6,79.6,121.5,78.6z"/>
	<g>
		<path class="st0" d="M115.5,163.9c-6.8,0-13.8-0.6-21.1-2c-48-9.4-67.2-37-71.1-51.8C18.9,93.2,34.9,85.2,42,82.5
			c13.4-5,39.6-4.6,40.7-4.6c-0.2,1.5-0.2,1.5-0.4,2.8L81,80.6c-0.2,0-25-0.4-38,4.4c-8,3-20.9,10.1-17.1,24.4s22.4,40.7,69,49.9
			c47.1,9.3,85.4-16.7,85.8-16.9c0.4-0.2,30.5-18.9,26.9-38.2c-2.3-12.3-35.2-15.5-47.7-15.7c-0.7-0.3-0.7-0.3-1.2-0.5
			c0-0.8,0-1.1,0-2.3c1.9,0.1,48.3,1.1,51.4,18.1c3.9,21.2-26.8,40.1-28.1,41C181.8,144.7,153.5,163.9,115.5,163.9z"/>
	</g>
	<g>
		<path class="st1" d="M112,156.1c-35.6,0-61.9-18.9-73.7-35.1c-5.8-8-8.3-15.7-6.8-20.5c3-9.2,12.4-15.3,25.9-16.8
			c9.7-1.1,24.4-1.2,24.5-1.2c-0.1,0.4,0,0.6-0.2,1.3c-2.5,0.5-3.6,1.1-4.9,1.4c-0.2,0-9.5,0.1-19.1,1.1c-5.8,0.7-19.8,3.5-23.7,15
			c-1.3,3.9,1.1,10.9,6.4,18.1c11.4,15.7,37,34.1,71.5,34.1c0.2,0,0.3,0,0.5,0c49.9-0.2,75.4-26.2,81-36.1c3.5-6.1,5.3-10.6,3.6-14
			c-2.3-4.3-10.8-7-26.6-8.6c-1.7-1.4-1.8-1.4-3.5-2.5c17.4,1.1,29.7,4.6,32.4,9.8c2.5,4.9-0.5,10.8-3.6,16.5
			c-7.3,12.8-34.1,37.3-83.4,37.5C112.3,156.1,112.2,156.1,112,156.1z"/>
	</g>
</g>
</svg>
