<?xml version="1.0" encoding="utf-8"?>
<!-- Generator: Adobe Illustrator 18.0.0, SVG Export Plug-In . SVG Version: 6.00 Build 0)  -->
<!DOCTYPE svg PUBLIC "-//W3C//DTD SVG 1.1//EN" "http://www.w3.org/Graphics/SVG/1.1/DTD/svg11.dtd">
<svg version="1.1" id="Capa_1" xmlns="http://www.w3.org/2000/svg" xmlns:xlink="http://www.w3.org/1999/xlink" x="0px" y="0px"
	 viewBox="0 0 300 189.5" enable-background="new 0 0 300 189.5" xml:space="preserve">
<g>
	<path d="M287.9,74c-9.1-18.4-46.5-23.7-80.1-25.9c-0.1,1.5-0.1,3.3-0.1,5.3c25.8,11.8,27,24.8,27,24.8c0,8.5-1.9,29.7-56.4,46.3
		C121.9,141.6,80,94.3,82.5,68.3C84.1,51.8,106.3,48,106.3,48l1.3-9.7c-15.4-1.3-32.2-1.1-51.7,3.3C9.7,51.7,11.1,83.8,12.8,94.3
		c2.3,13.7,34,78.1,132.1,83.4C216.4,181.6,307.5,113.9,287.9,74z"/>
	<path fill="#E3C83A" d="M203.2,32.2c-4.4-6.3-15.2-15.7-41.8-17.9c-41.2-3.5-48,5.4-48,12.4c0,9.9,44.2,68.1,44.2,68.1l45-52.6
		C205,39.4,205.4,35.2,203.2,32.2z M158.6,41.3c-13.4-1.3-23.7-7-23.2-12.7c0.6-5.7,11.8-9.3,25.2-8c13.4,1.3,23.7,7,23.2,12.7
		C183.2,39,172,42.6,158.6,41.3z"/>
	<g>
		<path fill="#E3C83A" d="M150.7,153.7c-8.9,0-18.2-0.8-27.8-2.7c-63.2-12.4-88.6-48.8-93.7-68.3C23.4,60.5,44.5,50,53.8,46.5
			c17.7-6.6,52.2-6.1,53.6-6.1c-0.3,2-0.3,2-0.5,3.7c0,0-1.7-0.2-1.7-0.2c-0.3,0-33-0.5-50.1,5.8c-10.5,3.9-27.3,13.2-22.5,32
			c4.9,18.8,29.5,53.7,91,65.8c62.1,12.2,112.5-22,113.1-22.3c0.5-0.3,40.2-24.9,35.5-50.4c-3-16.2-46.4-20.4-62.8-20.7
			c-0.9-0.4-0.9-0.4-1.6-0.7c0-1,0-1.4,0-3c2.5,0.1,63.7,1.5,67.8,23.8c5.1,27.9-35.3,52.9-37,54
			C238.1,128.4,200.8,153.7,150.7,153.7z"/>
	</g>
	<g>
		<path fill="#FFFFFF" d="M146.1,143.4c-46.9,0-81.6-24.9-97.1-46.3c-7.7-10.6-11-20.7-8.9-27c4-12.1,16.4-20.1,34.1-22.2
			c12.8-1.5,32.2-1.6,32.3-1.6c-0.1,0.5,0,0.8-0.2,1.7c-3.3,0.6-4.7,1.4-6.5,1.8c-0.2,0-12.5,0.1-25.2,1.5
			c-7.7,0.9-26.1,4.6-31.2,19.8c-1.7,5.2,1.5,14.3,8.4,23.9c15,20.7,48.7,44.9,94.2,44.9c0.2,0,0.4,0,0.6,0
			c65.7-0.3,99.4-34.5,106.8-47.6c4.6-8.1,7-14,4.7-18.4c-3-5.7-14.2-9.2-35-11.3c-2.2-1.8-2.4-1.8-4.6-3.3
			c22.9,1.5,39.1,6,42.7,12.9c3.3,6.4-0.6,14.2-4.8,21.7c-9.6,16.9-44.9,49.1-109.9,49.4C146.5,143.4,146.3,143.4,146.1,143.4z"/>
	</g>
</g>
</svg>
