<?xml version="1.0" encoding="utf-8"?>
<!-- Generator: Adobe Illustrator 18.0.0, SVG Export Plug-In . SVG Version: 6.00 Build 0)  -->
<!DOCTYPE svg PUBLIC "-//W3C//DTD SVG 1.1//EN" "http://www.w3.org/Graphics/SVG/1.1/DTD/svg11.dtd">
<svg version="1.1" id="Capa_1" xmlns="http://www.w3.org/2000/svg" xmlns:xlink="http://www.w3.org/1999/xlink" x="0px" y="0px"
	 viewBox="0 0 168 107.3" enable-background="new 0 0 168 107.3" xml:space="preserve">
<g>
	<path d="M157.5,42.2c-5-10.1-25.4-12.9-43.7-14.1c0,0.8,0,1.8,0,2.9c14.1,6.4,14.7,13.6,14.7,13.6c0,4.6-1,16.2-30.8,25.3
		C66.9,79.1,44,53.2,45.4,39.1c0.9-9.1,13-11.1,13-11.1l0.7-5.3c-8.4-0.7-17.6-0.6-28.2,1.8C5.7,30,6.4,47.5,7.4,53.2
		c1.3,7.5,18.6,42.6,72.1,45.5C118.5,100.9,168.2,64,157.5,42.2z"/>
	<path fill="#E3C83A" d="M111.3,19.3c-2.4-3.4-8.3-8.5-22.8-9.8c-22.5-1.9-26.2,3-26.2,6.8c0,5.4,24.1,37.2,24.1,37.2l24.5-28.7
		C112.3,23.3,112.4,21,111.3,19.3z M86.9,24.3c-7.3-0.7-13-3.8-12.7-6.9c0.3-3.1,6.5-5.1,13.7-4.3c7.3,0.7,13,3.8,12.7,6.9
		C100.4,23.1,94.2,25,86.9,24.3z"/>
	<g>
		<path fill="#E3C83A" d="M82.6,85.6c-4.9,0-10-0.4-15.2-1.5C32.9,77.4,19,57.6,16.3,46.9c-3.1-12.1,8.4-17.8,13.5-19.7
			c9.7-3.6,28.5-3.3,29.2-3.3c-0.1,1.1-0.1,1.1-0.3,2c0,0-0.9-0.1-0.9-0.1c-0.2,0-18-0.3-27.4,3.2c-5.7,2.1-14.9,7.2-12.3,17.5
			c2.7,10.2,16.1,29.3,49.7,35.9c33.9,6.6,61.4-12,61.7-12.2c0.3-0.2,21.9-13.6,19.4-27.5c-1.6-8.8-25.3-11.1-34.3-11.3
			c-0.5-0.2-0.5-0.2-0.8-0.4c0-0.5,0-0.8,0-1.6c1.4,0,34.8,0.8,37,13c2.8,15.2-19.3,28.9-20.2,29.5C130.3,71.9,110,85.6,82.6,85.6z"
			/>
	</g>
	<g>
		<path fill="#FFFFFF" d="M80.1,80.1c-25.6,0-44.5-13.6-53-25.3c-4.2-5.8-6-11.3-4.9-14.8c2.2-6.6,9-11,18.6-12.1
			c7-0.8,17.6-0.9,17.6-0.9c-0.1,0.3,0,0.4-0.1,1c-1.8,0.3-2.6,0.8-3.6,1c-0.1,0-6.8,0-13.7,0.8c-4.2,0.5-14.2,2.5-17,10.8
			c-0.9,2.8,0.8,7.8,4.6,13C36.9,65,55.2,78.2,80.1,78.2c0.1,0,0.2,0,0.3,0c35.8-0.2,54.3-18.8,58.3-26c2.5-4.4,3.8-7.7,2.6-10
			c-1.6-3.1-7.8-5-19.1-6.1c-1.2-1-1.3-1-2.5-1.8c12.5,0.8,21.3,3.3,23.3,7.1c1.8,3.5-0.3,7.8-2.6,11.9c-5.2,9.3-24.5,26.8-60,27
			C80.3,80.1,80.2,80.1,80.1,80.1z"/>
	</g>
</g>
</svg>
